# xmcd
#
# Track frame offsets:
# 151
# 19200
# 33951
# 48535
# 62807
# 74894
# 89711
# 106382
# 122984
# 136555
# 147918
# 161031
#
# Disc length: 2310 seconds
#
#
# Revision: 0
# Processed by: cddbd v1.5.1PL0 Copyright (c) Steve Scherf et al.
# Submitted via: FreeRIP 2.93 
#
DISCID=b509040c
DTITLE=Ray Charles - The legends
DYEAR=1900
DGENRE=Blues
TTITLE0=I can't stop loving you
TTITLE1=My baby don.t dig me
TTITLE2=Feel so bad
TTITLE3=Hide nor air
TTITLE4=No one to cry
TTITLE5=What am I living for
TTITLE6=Smack dab in the middle
TTITLE7=Look what they've done to my song ma
TTITLE8=Born to loose
TTITLE9=Someday
TTITLE10=Baby won't you please come home
TTITLE11=Honey honey
EXTD=Raccolta della Gazzetta del Mezzogiorno
EXTT0=
EXTT1=
EXTT2=
EXTT3=
EXTT4=
EXTT5=
EXTT6=
EXTT7=
EXTT8=
EXTT9=
EXTT10=
EXTT11=
PLAYORDER=
